# xmcd
#
# Track frame offsets:
#	225
#	12538
#	26072
#	42917
#	56110
#	68300
#	80583
#	93622
#	116941
#	124934
#	135017
#	153574
#	166692
#	183105
#	193121
#	208873
#	230296
#
# Disc length: 3237 seconds
#
# Revision: 1
# Processed by: cddbd v1.4PL0 Copyright (c) Steve Scherf et al.
# Submitted via: audiograbber 1.81.03
#
DISCID=e50ca211
DTITLE=Various Artist - Lebensfreude - Gospels
DYEAR=1992
DGENRE=Gospel
TTITLE0=Les Patterson Singers - He's got the whole World
TTITLE1=Johnny Thompson Singers - Oh, In that sea
TTITLE2=The Harlem Gospel Singers - Higher and Higher
TTITLE3=Lee Patterson Singers - Go tell it on the Mountain
TTITLE4=Al Edwards - My Work is done
TTITLE5=Mahalia Jackson - The holy Babe
TTITLE6=Lee Patterson Singers - So high
TTITLE7=Johnny Thompson Singers - Glory, Glory, Hallelujah
TTITLE8=Al Edwards - Good News
TTITLE9=Lee Patterson Singers - Amen
TTITLE10=Johnny Thompson Singers - The Strom is passing over
TTITLE11=Willi and Bobbie Nelson - Old Time Religion
TTITLE12=Lee Patterson Singers - Baby Boy
TTITLE13=Golden Gate Quartett - Adam is in the Garden
TTITLE14=Mahalia Jackson - Down by the Riverside
TTITLE15=Les Humphries Singers - Oh happy Day
TTITLE16=Hamburg-Mannheimer - Mehr vom Leben
EXTD=
EXTT0=
EXTT1=
EXTT2=
EXTT3=
EXTT4=
EXTT5=
EXTT6=
EXTT7=
EXTT8=
EXTT9=
EXTT10=
EXTT11=
EXTT12=
EXTT13=
EXTT14=
EXTT15=
EXTT16=
PLAYORDER=
